<svg width="66.061172" height="21.360107" viewBox="0 0 66.0612 21.3601" fill="none" xmlns="http://www.w3.org/2000/svg" xmlns:xlink="http://www.w3.org/1999/xlink">
	<desc>
			Created with Pixso.
	</desc>
	<defs/>
	<path id="ART" d="M23.72 0.44L23.72 21.36L27.98 21.36L27.98 14.12L33.05 14.12L37.94 21.33L42.8 21.33L37.64 13.67C40.64 12.89 42.92 11.04 42.92 6.87C42.92 1.64 39.11 0 34.67 0C29.99 0 28.64 3.51 27.98 7.4L27.98 0.44L23.72 0.44ZM0 21.36L0.54 21.36L3.48 12.81L12.03 12.81L15.36 21.36L19.83 21.36L11.73 0.44L7.2 0.44L0 21.36ZM53.19 21.36L53.16 0.95L44.55 0.95L44.55 0.44L66.06 0.44L66.06 0.95L57.45 0.95L57.45 21.36L53.19 21.36ZM29.15 4.83C29.96 1.88 32.06 0.68 33.92 0.54C38.39 0.12 38.57 2.96 38.57 6.87C38.57 13.2 35.21 13.62 32.33 13.62L27.98 13.62C27.98 13.62 27.86 9.47 29.15 4.83ZM7.5 1.11L11.85 12.3L3.66 12.3L7.5 1.11Z" fill="#FFFFFF" fill-opacity="1.000000" fill-rule="evenodd"/>
</svg>
