<svg width="102.164909" height="23.000977" viewBox="0 0 102.165 23.001" fill="none" xmlns="http://www.w3.org/2000/svg" xmlns:xlink="http://www.w3.org/1999/xlink">
	<desc>
			Created with Pixso.
	</desc>
	<defs/>
	<path id="LENNI" d="M18.05 22.43L4.71 22.43L4.71 0.03L4.68 0.03L4.68 0L0 0L0 23L18.05 23L18.05 22.43ZM22.01 23L40.13 23L40.13 22.43L26.7 22.43L26.7 11.28L37.19 11.28L37.19 10.69L26.7 10.69L26.7 0.56L40.13 0.56L40.13 0L22.01 0L22.01 23ZM48.78 0.56L48.78 23L44.09 23L44.09 0L48.78 0C55.25 0 59.74 4.19 61.15 10.32L61.15 0L65.84 0L65.84 23L61.15 23L61.15 14.45C60.49 1.64 51.65 0.56 48.78 0.56ZM75.47 23L75.47 0.56C78.34 0.56 87.18 1.64 87.84 14.45L87.84 23L92.53 23L92.53 0L87.84 0L87.84 10.32C86.43 4.19 81.94 0 75.47 0L70.78 0L70.78 23L75.47 23ZM102.16 23L97.47 23L97.47 0L102.16 0L102.16 23Z" fill="#FFFFFF" fill-opacity="1.000000" fill-rule="evenodd"/>
</svg>
