<svg width="202.000000" height="147.000000" viewBox="0 0 202 147" fill="none" xmlns="http://www.w3.org/2000/svg" xmlns:xlink="http://www.w3.org/1999/xlink">
	<desc>
			Created with Pixso.
	</desc>
	<defs/>
	<rect width="147.000000" height="147.000000" fill="#1F1E1E" fill-opacity="1.000000"/>
	<path d="M39.96 72.43L26.63 72.43L26.63 50.03L26.6 50.03L26.6 49.99L21.91 49.99L21.91 73L39.96 73L39.96 72.43ZM43.93 73L62.04 73L62.04 72.43L48.61 72.43L48.61 61.28L59.11 61.28L59.11 60.69L48.61 60.69L48.61 50.56L62.04 50.56L62.04 49.99L43.93 49.99L43.93 73ZM70.69 50.56L70.69 73L66.01 73L66.01 49.99L70.69 49.99C77.16 49.99 81.65 54.18 83.07 60.32L83.07 49.99L87.76 49.99L87.76 73L83.07 73L83.07 64.45C82.41 51.64 73.57 50.56 70.69 50.56ZM97.38 73L97.38 50.56C100.26 50.56 109.1 51.64 109.76 64.45L109.76 73L114.45 73L114.45 49.99L109.76 49.99L109.76 60.32C108.34 54.18 103.85 49.99 97.38 49.99L92.7 49.99L92.7 73L97.38 73ZM124.07 73L119.39 73L119.39 49.99L124.07 49.99L124.07 73Z" fill="#FFFFFF" fill-opacity="1.000000" fill-rule="evenodd"/>
	<rect x="81.000000" y="92.000000" width="121.000000" height="42.000000" fill="#BC3324" fill-opacity="1.000000"/>
	<path d="M132.64 103.09L132.64 124L136.9 124L136.9 116.77L141.97 116.77L146.86 123.97L151.72 123.97L146.56 116.32C149.56 115.54 151.84 113.68 151.84 109.51C151.84 104.29 148.03 102.64 143.59 102.64C138.91 102.64 137.56 106.15 136.9 110.05L136.9 103.09L132.64 103.09ZM108.92 124L109.46 124L112.4 115.45L120.95 115.45L124.28 124L128.75 124L120.65 103.09L116.12 103.09L108.92 124ZM162.11 124L162.08 103.6L153.47 103.6L153.47 103.09L174.98 103.09L174.98 103.6L166.37 103.6L166.37 124L162.11 124ZM138.07 107.47C138.88 104.53 140.98 103.33 142.84 103.18C147.31 102.76 147.49 105.61 147.49 109.51C147.49 115.84 144.13 116.26 141.25 116.26L136.9 116.26C136.9 116.26 136.78 112.12 138.07 107.47ZM116.42 103.75L120.77 114.94L112.58 114.94L116.42 103.75Z" fill="#FFFFFF" fill-opacity="1.000000" fill-rule="evenodd"/>
</svg>
